simulation
nRows=36
nColumns=15
endheader
time  TH_x TH_y TH_z SC_y  SC_z  SC_x  AC_y  AC_z  AC_x  GH_y  GH_z  GH_yy  EL_x  PS_y
0.750097  0.000000  0.000000  0.000000  -26.823470  -2.807905  8.822606  59.199572  27.889101  -7.276911  16.434701  35.949064  -32.382802  21.435294  121.166223
0.750486  0.000000  0.000000  0.000000  -15.566492  -11.639387  8.822606  61.467129  -8.681072  -9.155990  18.502134  32.806284  -29.224729  12.106971  134.695745
0.750874  0.000000  0.000000  0.000000  -25.471711  -9.912487  8.822606  63.304527  -4.248590  -2.259477  23.199106  51.072126  -24.672810  20.918862  133.204297
0.751263  0.000000  0.000000  0.000000  -33.003904  0.456568  14.822606  57.585179  9.121923  -8.851830  24.978283  42.588278  -22.944427  18.722485  125.374003
0.751652  0.000000  0.000000  0.000000  -21.417648  -5.025706  14.822606  59.408992  -3.037551  -15.788895  21.482139  45.728235  -32.789188  18.760783  125.846457
0.752040  0.000000  0.000000  0.000000  -42.876674  -2.633306  14.822606  67.290666  -5.571713  -0.256562  24.420542  52.284448  -29.574478  17.998406  133.970199
0.752429  0.000000  0.000000  0.000000  -14.743911  -3.343679  14.822606  54.990829  -12.709112  -6.507275  18.855175  36.790054  -13.371291  21.237931  121.354596
0.752818  0.000000  0.000000  0.000000  -37.120468  -1.845049  14.822606  66.082688  23.993106  -6.608512  29.672536  39.593250  -26.736143  28.007438  129.145018
0.753206  0.000000  0.000000  0.000000  -21.713275  2.074989  14.822606  51.454327  12.632009  -17.377644  33.909657  48.765749  -31.185529  11.317879  131.571535
0.753595  0.000000  0.000000  0.000000  -13.600649  9.507624  14.822606  52.902945  -3.020692  -1.685443  34.169674  33.202677  -25.997786  18.655287  133.796909
0.753984  0.000000  0.000000  0.000000  -14.350824  9.318002  14.822606  53.567011  14.947413  -6.447148  24.552192  48.850767  -16.310982  15.194193  120.554520
0.754372  0.000000  0.000000  0.000000  -38.195973  4.364442  14.822606  59.414527  2.805164  -6.991237  19.818575  41.427720  -21.912693  13.410684  133.767907
0.754761  0.000000  0.000000  0.000000  -48.284207  -3.112426  14.822606  64.320421  8.753357  -10.505813  29.215305  40.562426  -31.521417  20.074615  118.590907
0.755150  0.000000  0.000000  0.000000  -42.273631  0.149552  14.822606  48.095038  -1.412922  -18.037214  26.125979  35.450904  -27.708471  28.306867  131.839389
0.755538  0.000000  0.000000  0.000000  -35.831490  -2.707360  14.822606  56.812232  -4.943721  -6.302972  22.030357  35.143385  -18.210993  13.624127  128.748369
0.755927  0.000000  0.000000  0.000000  -29.337004  0.758652  14.822606  53.156783  32.701964  -12.777110  28.331533  49.204107  -25.198160  24.445165  121.870411
0.756316  0.000000  0.000000  0.000000  -21.137128  -4.046585  14.822606  66.837352  24.057367  -12.892869  29.788232  50.273517  -24.971859  8.847069  115.627885
0.756704  0.000000  0.000000  0.000000  -29.474901  6.702838  14.822606  59.055523  33.167558  -3.641162  23.274087  37.449956  -32.035629  19.332820  134.643144
0.757093  0.000000  0.000000  0.000000  -44.446272  -3.538317  14.822606  60.457679  -7.871021  -4.025482  33.865232  50.458322  -28.033698  23.288285  131.883096
0.757482  0.000000  0.000000  0.000000  -34.359758  -4.540086  14.822606  57.837816  -14.169330  -3.459657  17.185025  45.875858  -30.434111  24.502315  118.503900
0.757870  0.000000  0.000000  0.000000  -33.003904  0.456568  20.822606  57.954812  4.045075  -12.071936  24.978283  42.588278  -22.944427  18.722485  125.374003
0.758259  0.000000  0.000000  0.000000  -28.559811  5.526476  20.822606  65.100520  8.774580  -5.973470  27.132388  34.676396  -15.636763  18.834105  129.714867
0.758647  0.000000  0.000000  0.000000  -46.790676  -1.495929  20.822606  62.918422  22.839469  -14.757354  29.289774  50.939800  -16.799331  20.536206  117.476762
0.759036  0.000000  0.000000  0.000000  -14.553521  4.502917  20.822606  54.870702  19.712048  -16.601660  17.458947  44.723886  -22.878877  22.359925  134.850263
0.759425  0.000000  0.000000  0.000000  -45.525247  1.164064  20.822606  60.051145  21.546443  -8.914061  33.162677  47.851481  -32.906764  16.172020  132.047610
0.759813  0.000000  0.000000  0.000000  -47.162550  -5.350272  20.822606  53.989936  -17.381301  -19.692518  21.593601  44.981856  -29.548200  13.528574  125.872074
0.760202  0.000000  0.000000  0.000000  -40.473330  -1.900910  20.822606  66.403062  14.135404  -5.281628  25.338091  46.910253  -14.648182  23.052417  133.108387
0.760591  0.000000  0.000000  0.000000  -15.423096  10.666831  20.822606  58.557255  3.455006  -4.747585  28.895881  47.539999  -14.269828  26.871893  122.354403
0.760979  0.000000  0.000000  0.000000  -20.978764  -2.094285  20.822606  61.496068  9.129004  -15.416044  22.512447  43.486287  -26.138883  26.798385  134.079085
0.761368  0.000000  0.000000  0.000000  -17.310395  8.332927  20.822606  61.140157  9.651352  -2.796378  20.886257  47.979367  -16.654545  21.557702  133.436317
0.761757  0.000000  0.000000  0.000000  -13.507728  2.210960  20.822606  59.663017  9.933101  -6.695309  17.791299  36.917718  -14.253076  13.977263  133.751445
0.762145  0.000000  0.000000  0.000000  -45.798011  -17.368816  20.822606  67.099143  -15.727337  -7.394010  26.561990  33.318276  -14.445890  18.098174  120.752148
0.762534  0.000000  0.000000  0.000000  -42.502515  -2.699824  20.822606  49.147355  27.755802  -17.615556  32.387148  39.567368  -14.813691  10.680948  117.225655
0.762923  0.000000  0.000000  0.000000  -32.741999  -0.307057  -0.982579  55.602526  18.878514  -1.251743  25.864679  38.644917  -22.502063  19.049053  125.678007
0.763311  0.000000  0.000000  0.000000  -32.741999  -0.307057  -10.982579  53.129413  27.014954  5.070145  25.864679  38.644917  -22.502063  19.049053  125.678007
0.763700  0.000000  0.000000  0.000000  -45.975616  0.463578  -10.982579  46.161953  36.412180  5.063042  33.598330  43.959097  -18.270658  23.182195  129.618531
